<svg width="100" height="100.01" xmlns="http://www.w3.org/2000/svg"><path d="M100 50.001a49.882 49.882 0 0 1-16.795 37.366c-.4719.429-.96525.84728-1.4586 1.2548a47.115 47.115 0 0 1-5.7379 4.0862c-.87945.53625-1.7696 1.0725-2.6813 1.5337l-.78293.39682a50.054 50.054 0 0 1-30.716 4.6976 48.263 48.263 0 0 1-5.577-1.2334 49.828 49.828 0 0 1-16.431-8.2261c-1.169-.89018-2.2952-1.834-3.3891-2.8207a49.335 49.335 0 0 1-5.1158-5.3625c-.53625-.65423-1.0725-1.3299-1.5551-2.0163a50 50 0 1 1 90.24-29.676z" fill="#93c5fd"/><g stroke-width="1.0725"><path d="M81.746 88.622a47.115 47.115 0 0 1-5.7379 4.0862c-.87945.53625-1.7696 1.0725-2.6813 1.5337l-.78293.39682a50.054 50.054 0 0 1-30.716 4.6976 48.263 48.263 0 0 1-5.577-1.2334 49.828 49.828 0 0 1-16.431-8.2261c-1.169-.89018-2.2952-1.834-3.3891-2.8207a49.335 49.335 0 0 1-5.1158-5.3625c-.53625-.65423-1.0725-1.3299-1.5551-2.0163 3.3248-5.0944 8.9339-11.594 17.321-15.015a31.317 31.317 0 0 1 7.5075-1.9627h.4719l.7293-.07508h.67567l.91162-.05362c.67568 0 1.3621-.10725 2.0163-.1287 18.619-.71858 28.529 6.671 29.108 7.1107a.40755.40755 0 0 1 .11798.11798c.18232.20378.63278.6864 1.287 1.4479a89.307 89.307 0 0 1 11.84 17.503z" fill="#46467f"/><path d="M42.9 37.206s4.2257-1.0725 6.1991-3.4642c1.9734-2.3917 2.2737-8.4299 2.2737-8.4299s7.6362 3.9683 9.6525 3.5285c2.0163-.43972 5.9417-9.438 3.2926-13.32s-8.0116.92235-8.0116.92235a5.5127 5.5127 0 0 0-6.9713-4.29c-6.8747 1.5122-8.6551 8.5049-8.6551 8.5049s-.46118-7.5826-5.2553-4.29-3.0674 12.023-3.0674 12.023-3.8288 1.6624-3.0566 5.2767c.7722 3.6143 5.9309 7.0785 5.9309 7.0785z" fill="#e56445"/><path d="m42.192 48.092-1.0082 11.444s1.8447 3.4535 8.7302 4.5689c5.1158.82583 7.0356-.15015 7.0356-.15015l-.2145-5.8559-.2145-5.7057-12.269-3.6787z" fill="#fca397"/><path d="M44.251 48.714a3.4106 3.4106 0 0 0 .24668 1.1369c2.145 5.9309 9.2771 7.7542 12.237 8.2475l-.2145-5.7057z"/><path d="M61.454 26.545s4.955 14.854 1.8233 22.619c-3.1317 7.7649-10.553 5.7701-14.908 3.7859a14.865 14.865 0 0 1-6.1669-4.8477 6.4994 6.4994 0 0 1-6.8104-3.0566c-2.4239-4.0541-.23595-8.2368 2.2737-8.9983 2.5097-.76148 5.2338 1.1583 5.2338 1.1583l-1.8125-4.29s11.583-20.142 20.367-6.3707z" fill="#fca397"/><path d="M41.935 43.426a.57915.57915 0 0 1-.3432-.11798l-5.0086-4.1399a.5577.5577 0 0 1-.07507-.76148.54698.54698 0 0 1 .76148-.06435l5.0086 4.1399a.53625.53625 0 0 1-.3432.9438zM51.04 31.843a.5148.5148 0 0 1-.36465-.13942.53625.53625 0 0 1 0-.76148 3.8288 3.8288 0 0 1 4.8263-.79365.53625.53625 0 0 1-.57915.9009 2.7671 2.7671 0 0 0-3.4749.63278.52553.52553 0 0 1-.40755.16088zM62.57 32.251a.50408.50408 0 0 1-.36465-.15015 2.3595 2.3595 0 0 0-2.5311-.45045.53625.53625 0 0 1-.70785-.26813.52553.52553 0 0 1 .2574-.70785 3.4427 3.4427 0 0 1 3.7216.65422.52553.52553 0 0 1 0 .75075.52553.52553 0 0 1-.37538.1716zM59.62 42.965a.41828.41828 0 0 1-.19305 0 .53625.53625 0 0 1-.3003-.69713c1.5337-3.7752-1.0725-5.1587-1.2119-5.2124a.53721.53721 0 0 1 .4719-.96525s3.6572 1.8554 1.7375 6.5852a.54698.54698 0 0 1-.50408.28958zM62.033 37.742a.54698.54698 0 0 1-.52552-.43973l-.50408-2.6813a.52553.52553 0 0 1 .41828-.62205.53625.53625 0 0 1 .63278.41828l.5148 2.692a.53625.53625 0 0 1-.429.62205zM53.464 37.27a.52553.52553 0 0 1-.52553-.43972l-.5148-2.6813a.53625.53625 0 0 1 .429-.62205.52553.52553 0 0 1 .62205.41828l.5148 2.692a.53625.53625 0 0 1-.429.62205zM56.285 47.277a4.5474 4.5474 0 0 1-4.2042-2.7885.53625.53625 0 1 1 .99743-.37538 3.5178 3.5178 0 0 0 3.2175 2.0914.53625.53625 0 0 1 .53625.53625.52553.52553 0 0 1-.52553.53625z"/><path d="M42.9 37.206s4.526-.78292 6.1991-4.4831a15.948 15.948 0 0 0 1.3943-6.982 7.6898 7.6898 0 0 0 6.242 2.0378c3.9575-.41828 5.0515-4.4831 5.0515-4.4831l-3.6358-4.29s-14.908 3.1746-15.251 2.7134c-.3432-.46118-5.7915 9.2128-5.7915 9.2128z" fill="#e56445"/><path d="M72.544 94.638a50.054 50.054 0 0 1-30.716 4.6976 48.263 48.263 0 0 1-5.577-1.2334 49.828 49.828 0 0 1-16.431-8.2261c2.0914-12.731 4.29-23.273 6.0167-24.442a10.725 10.725 0 0 1 1.2441-.71858 24.185 24.185 0 0 1 7.5075-1.9627h.4719l.7293-.07507h.67568l.91162-.05363c1.2227-.06435 2.0056 0 2.0056 0a.45045.45045 0 0 1 0-.07507c0-.70785.53625-6.242 2.0378-6.124 1.5015.11798 5.4698 2.7992 9.5667 3.1317a42.804 42.804 0 0 0 7.1107 0c.82582 0 .99743 4.3865.99743 4.3865a27.885 27.885 0 0 1 9.3951 5.7486.40755.40755 0 0 1 .11798.11798c.18232.20378.63278.6864 1.287 1.4479a12.087 12.087 0 0 1 1.287 1.9841c1.2012 2.0378 1.4801 10.897 1.3621 21.396z" fill="#46467f"/><path d="M48.112 64.823a31.103 31.103 0 0 1-8.8696-1.8554.53625.53625 0 0 1 .36465-1.0082c.07507 0 6.6817 2.4346 10.178 1.6195a.53625.53625 0 0 1 .6435.40755.52553.52553 0 0 1-.39682.6435 8.9554 8.9554 0 0 1-1.9198.19305z" fill="#ffbf69"/><path d="M37.076 43.33a.53625.53625 0 0 1-.2574-1.0082l2.8636-1.5659a.53625.53625 0 0 1 .7293.22522.54698.54698 0 0 1-.2145.7293l-2.8743 1.5337a.56843.56843 0 0 1-.24668.0858zM49.882 34.085h5.888a.96525.96525 0 0 1 .96525.96525v2.6491a2.6169 2.6169 0 0 1-2.6169 2.6169h-2.6384a2.6169 2.6169 0 0 1-2.6169-2.6169v-2.6384a.96525.96525 0 0 1 1.0189-.97598zM60.822 34.224h5.8559a.96525.96525 0 0 1 .96525.96525v2.6491a2.6169 2.6169 0 0 1-2.6169 2.6169h-2.5633a2.6169 2.6169 0 0 1-2.6169-2.6169v-2.6491a.96525.96525 0 0 1 .97598-.96525z"/><path d="M56.703 38.236a.54698.54698 0 0 1-.3861-.16088.53625.53625 0 0 1 0-.75075 5.2874 5.2874 0 0 1 4.8155-1.0725.54907.54907 0 0 1-.23595 1.0725 4.2149 4.2149 0 0 0-3.8181.82583.57915.57915 0 0 1-.37538.0858zM39.425 35.973a.54698.54698 0 0 1-.52552-.41828.53625.53625 0 0 1 .40755-.6435c6.5959-1.4801 10.618-.0858 10.789 0a.53625.53625 0 1 1-.36465 1.0082s-3.9254-1.3514-10.189.06435z"/></g></svg>